<svg width="18" height="18" fill="none" xmlns="http://www.w3.org/2000/svg"><path d="M17.794 4.354L13.646.206a.703.703 0 00-.995 0L9 3.857C5.09-.043 5.33.152 5.152.068a.708.708 0 00-.3-.068A4.857 4.857 0 000 4.855c.001.192.08.368.206.494L3.857 9 .206 12.651a.703.703 0 000 .995l4.148 4.148c.275.275.72.275.995 0L9 14.143c3.179 3.178 3.002 3.054 3.248 3.127.188.055.053.016 4.347.028a.703.703 0 00.703-.703c-.001-4.516.015-4.205-.03-4.353-.092-.302-.066-.14-3.125-3.242l3.651-3.651a.703.703 0 000-.995zM6.926 14.228l-1.577-1.577a.703.703 0 00-.995.995l1.577 1.577-1.08 1.08-3.153-3.155 3.154-3.154 3.154 3.154-1.08 1.08zm8.966 1.664h-2.67a3.456 3.456 0 012.67-2.67v2.67zm-.767-3.92a4.873 4.873 0 00-3.154 3.153L1.418 4.572a3.451 3.451 0 013.154-3.154l8.079 8.079 2.474 2.474zm.098-6.04l-1.577-1.578a.703.703 0 00-.995.995l1.577 1.577-1.08 1.08-3.154-3.154 3.154-3.154 3.154 3.154-1.08 1.08z" fill="#08385C"/></svg>