<svg width="18" height="18" fill="none" xmlns="http://www.w3.org/2000/svg"><path d="M17.297 0H3.469a.703.703 0 00-.703.703v13.125H.703a.703.703 0 00-.703.703A3.473 3.473 0 003.469 18H14.53A3.473 3.473 0 0018 14.531V.703A.703.703 0 0017.297 0zM3.469 16.594c-.89 0-1.651-.567-1.94-1.36h9.605c.104.501.315.963.61 1.36H3.469zm11.062 0a2.065 2.065 0 01-2.062-2.063.703.703 0 00-.704-.703H4.172V1.406h12.422v11.42l-2.299-2.298a4.84 4.84 0 00.954-2.89 4.871 4.871 0 00-4.866-4.865 4.871 4.871 0 00-4.866 4.865 4.871 4.871 0 004.866 4.866 4.84 4.84 0 002.922-.978l3.27 3.272a2.065 2.065 0 01-2.044 1.796zm-4.148-5.496a3.463 3.463 0 01-3.46-3.46 3.463 3.463 0 013.46-3.46 3.463 3.463 0 013.46 3.46 3.463 3.463 0 01-3.46 3.46z" fill="#08385C"/></svg>