<svg width="18" height="18" fill="none" xmlns="http://www.w3.org/2000/svg"><path d="M16.96 4.8l.833-.833a.704.704 0 00-.497-1.2h-2.062V.703a.704.704 0 00-1.2-.497l-.834.833A8.991 8.991 0 009 0C4.026 0 0 4.027 0 9s4.025 9 9 9c4.973 0 9-4.025 9-9a8.99 8.99 0 00-1.04-4.2zm-2.43-.628h1.07l-1.36 1.36h-1.77V3.76l1.359-1.36v1.07c0 .389.314.703.703.703zM9 16.594A7.59 7.59 0 011.406 9 7.59 7.59 0 019 1.407a7.58 7.58 0 013.15.683l-.882.882a.703.703 0 00-.206.497v2.475l-2.56 2.56a.703.703 0 00.995.994l2.56-2.56h2.474a.704.704 0 00.497-.206l.883-.882c.448.983.682 2.057.682 3.15A7.59 7.59 0 019 16.594zM14.544 9A5.55 5.55 0 019 14.545 5.55 5.55 0 013.455 9 5.55 5.55 0 019 3.456a.703.703 0 110 1.406A4.143 4.143 0 004.86 9 4.143 4.143 0 009 13.14 4.143 4.143 0 0013.138 9a.703.703 0 111.406 0z" fill="#08385C"/></svg>