<svg width="145" height="32" fill="none" xmlns="http://www.w3.org/2000/svg"><path d="M4.12 26.698a15.994 15.994 0 01-.034-21.392l6.705 6.692v7.999l-6.67 6.701zm17.109 4.424V19.458H12.53v-6.935h19.09c1.471 6.423-1.177 15.194-10.39 18.603v-.004zm0-20.335V.88a15.934 15.934 0 019.927 9.905l-9.927.003zm-9.227-.003L5.293 4.1A16.01 16.01 0 0116.1.003a12.396 12.396 0 013.407.403v10.378h-7.505zM5.293 27.87l6.709-6.653h7.512v10.385c-5.039 1.217-10.682-.452-14.22-3.732z" fill="#fff"/><path fill-rule="evenodd" clip-rule="evenodd" d="M47.391 20.912H45V9h5.177v2.193H47.39v9.719zM55.609 9h5.575v2.193h-3.086v2.299h2.39v2.193h-2.39v3.037h3.285v2.194H55.61V9zm15.733 6.685h-2.29v5.223h-2.488V9h2.489v4.492h2.29V9h2.39v11.912h-2.39v-5.227zM79.128 9h5.575v2.193h-3.087v2.299h2.391v2.193h-2.39v3.037h3.285v2.194h-5.774V9zm15.432 3.446c0-.541-.35-1.253-.895-1.253h-1.109v3.866h1.128c.55 0 .895-1.011.895-1.462l-.019-1.151zm-.3 4.701h-1.704v3.76h-2.488V9h4.082a2.822 2.822 0 012.006.913c.26.282.462.614.597.977.134.363.198.75.187 1.14v1.882c.011 1.31-.703 3.255-2.677 3.255l-.004-.02zm10.3-5.013l-.797 4.387h1.594l-.797-4.387zm1.196 6.374h-2.391l-.399 2.404h-2.489L102.97 9h3.188l2.489 11.912h-2.489l-.402-2.404zm13.285 2.404h-6.184V9h2.489v9.722h2.192V9h2.488v9.722h.997V23h-1.993l.011-2.088zm11.395-6.374l-2.489 5.118v1.252h-2.488V9h2.488v6.374l2.489-5.118V9h2.489v11.912h-2.489v-6.374zm12.072-3.345h-1.192c-.433 0-.797.591-.797.941v1.358c0 .389.316 1.252.695 1.252h1.294v-3.55zm0 9.723V16.73h-.797l-1.594 4.18h-2.688l2.191-4.701s-1.503-.696-1.503-2.82v-1.555c0-1.622 1.094-2.82 2.887-2.82H145v11.912l-2.492-.011z" fill="#fff"/></svg>