<svg width="18" height="18" viewBox="0 0 18 18" fill="none" xmlns="http://www.w3.org/2000/svg">
<path d="M17.7941 4.35442L13.6457 0.205993C13.371 -0.0686644 12.9258 -0.0686644 12.6513 0.205993L8.99999 3.85716C5.08996 -0.0429839 5.32974 0.15216 5.1519 0.0681151C5.05577 0.0225219 4.95085 0 4.85156 0C2.18532 0 0.000137329 2.16595 0.000137329 4.85471C0.00109863 5.04683 0.0800628 5.22289 0.205993 5.34882L3.85716 8.99998L0.205993 12.6513C-0.0686645 12.9258 -0.0686645 13.371 0.205993 13.6457L4.35443 17.7941C4.62895 18.0686 5.07417 18.0686 5.34883 17.7941L8.99999 14.1428C12.1786 17.3207 12.0023 17.197 12.2485 17.2695C12.4362 17.3247 12.3012 17.286 16.5951 17.2984C16.9835 17.2984 17.2982 16.9835 17.2982 16.5952C17.297 12.0794 17.3129 12.3902 17.2677 12.2419C17.176 11.9405 17.2018 12.1011 14.1428 8.99998L17.794 5.34882C18.0686 5.07416 18.0686 4.62894 17.7941 4.35442ZM6.92577 14.2282L5.34869 12.6513C5.07417 12.3768 4.62895 12.3768 4.35429 12.6513C4.07977 12.9258 4.07977 13.371 4.35429 13.6457L5.93138 15.2226L4.85156 16.3024L1.69752 13.1484L4.85156 9.99438L8.00559 13.1484L6.92577 14.2282ZM15.892 15.8921H13.222C13.5003 14.5553 14.5554 13.5004 15.892 13.2222V15.8921ZM15.1254 11.9714C13.6303 12.4476 12.4476 13.6304 11.9714 15.1254C11.3692 14.5232 2.08067 5.2347 1.41765 4.57181C1.55319 2.89475 2.89462 1.55319 4.57168 1.41765C4.70599 1.55195 12.2252 9.07098 12.6509 9.49684C12.651 9.49698 12.6512 9.49711 12.6513 9.49725C12.6513 9.49725 12.6514 9.49739 12.6516 9.49753L15.1254 11.9714ZM15.2226 5.93137L13.6457 4.35442C13.371 4.0799 12.9258 4.0799 12.6513 4.35442C12.3766 4.62894 12.3766 5.07416 12.6513 5.34882L14.2282 6.92577L13.1484 8.00558L9.99439 4.85155L13.1484 1.69752L16.3025 4.85155L15.2226 5.93137Z" fill="#08385C"/>
</svg>
