<svg width="18" height="18" viewBox="0 0 18 18" fill="none" xmlns="http://www.w3.org/2000/svg">
<path d="M13.174 4.87395H17.2969C17.6852 4.87395 18 4.55919 18 4.17082V0.703125C18 0.314758 17.6852 0 17.2969 0H13.174C12.7858 0 12.4709 0.314758 12.4709 0.703125V1.73378H9C8.61163 1.73378 8.29688 2.04868 8.29688 2.4369V8.29688H5.55469V6.23433C5.55469 5.84596 5.23993 5.5312 4.85156 5.5312H0.703125C0.314758 5.5312 0 5.84596 0 6.23433V11.7655C0 12.1539 0.314758 12.4687 0.703125 12.4687H4.85156C5.23993 12.4687 5.55469 12.1539 5.55469 11.7655V9.70312H8.29688V15.5631C8.29688 15.9513 8.61163 16.2662 9 16.2662H12.4709V17.2969C12.4709 17.6852 12.7858 18 13.174 18H17.2969C17.6852 18 18 17.6852 18 17.2969V13.8292C18 13.4408 17.6852 13.1261 17.2969 13.1261H13.174C12.7858 13.1261 12.4709 13.4408 12.4709 13.8292V14.86H9.70312V9.70312H12.4709V10.7338C12.4709 11.1221 12.7858 11.4369 13.174 11.4369H17.2969C17.6852 11.4369 18 11.1221 18 10.7338V7.26622C18 6.87785 17.6852 6.5631 17.2969 6.5631H13.174C12.7858 6.5631 12.4709 6.87785 12.4709 7.26622V8.29688H9.70312V3.14003H12.4709V4.17082C12.4709 4.55919 12.7858 4.87395 13.174 4.87395ZM4.14844 11.0625H1.40625V6.93745H4.14844V11.0625ZM13.8771 14.5323H16.5938V16.5938H13.8771V14.5323ZM13.8771 7.96935H16.5938V10.0307H13.8771V7.96935ZM13.8771 1.40625H16.5938V3.4677H13.8771V1.40625Z" fill="#08385C"/>
</svg>
