<svg width="18" height="18" viewBox="0 0 18 18" fill="none" xmlns="http://www.w3.org/2000/svg">
<path d="M17.2969 0H3.4688C3.08043 0 2.76567 0.314758 2.76567 0.703125V13.8281H0.703125C0.314758 13.8281 0 14.1428 0 14.5312C0 16.4439 1.55608 18 3.4688 18H14.5313C16.4439 18 18 16.4439 18 14.5312V0.703125C18 0.314758 17.6852 0 17.2969 0ZM3.4688 16.5938C2.57822 16.5938 1.81783 16.0266 1.52971 15.2343H11.1341C11.2376 15.7352 11.4494 16.1969 11.744 16.5938H3.4688ZM14.5312 16.5938C13.394 16.5938 12.4687 15.6686 12.4687 14.5312C12.4687 14.1428 12.1539 13.8281 11.7655 13.8281H4.17178V1.40625H16.5938V12.8267L14.2951 10.5281C14.8939 9.71947 15.2485 8.71957 15.2485 7.63838C15.2485 4.95552 13.0658 2.77267 10.3828 2.77267C7.69977 2.77267 5.51706 4.95552 5.51706 7.63838C5.51706 10.3214 7.69977 12.5041 10.3828 12.5041C11.4785 12.5041 12.4906 12.14 13.3049 11.5264L16.5759 14.7976C16.4449 15.8095 15.5782 16.5938 14.5312 16.5938ZM10.3828 11.098C8.47527 11.098 6.92331 9.54602 6.92331 7.63852C6.92331 5.73088 8.47527 4.17892 10.3828 4.17892C12.2904 4.17892 13.8422 5.73088 13.8422 7.63852C13.8422 9.54602 12.2904 11.098 10.3828 11.098Z" fill="#08385C"/>
</svg>
