<svg width="18" height="18" viewBox="0 0 18 18" fill="none" xmlns="http://www.w3.org/2000/svg">
<path d="M16.9603 4.79978L17.7934 3.96661C18.2348 3.52523 17.9222 2.76621 17.2963 2.76621H15.2339V0.703941C15.2339 0.0796423 14.4761 -0.235803 14.0335 0.206672L13.2003 1.03985C11.911 0.358832 10.47 0.000815297 8.99965 0.000815297C4.02583 0.000815297 0 4.02593 0 9.00041C0 13.9742 4.02514 18 8.99965 18C13.9735 18 17.9993 13.9749 17.9993 9.00041C17.9993 7.53002 17.6414 6.08917 16.9603 4.79978ZM14.5307 4.17246H15.5988L14.2395 5.53175H12.4683V3.76061L13.8276 2.40133V3.46934C13.8276 3.85771 14.1424 4.17246 14.5307 4.17246ZM8.99965 16.5939C4.80298 16.5939 1.40626 13.1976 1.40626 9.00041C1.40626 4.80377 4.80243 1.40693 8.99965 1.40693C10.0931 1.40693 11.1668 1.64121 12.1505 2.08973L11.2681 2.97221C11.1362 3.10404 11.0621 3.28285 11.0621 3.46934V5.9436L8.50251 8.50328C8.22799 8.7778 8.22799 9.22302 8.50251 9.49754C8.77703 9.77206 9.22226 9.7722 9.49692 9.49754L12.0565 6.938H14.5307C14.7172 6.938 14.896 6.86384 15.0279 6.73214L15.9105 5.84953C16.359 6.83322 16.5932 7.90699 16.5932 9.00041C16.5932 13.1971 13.197 16.5939 8.99965 16.5939ZM14.5442 9.00041C14.5442 12.0576 12.057 14.5449 8.99965 14.5449C5.94241 14.5449 3.45508 12.0576 3.45508 9.00041C3.45508 5.94319 5.94241 3.45588 8.99965 3.45588C9.38801 3.45588 9.70278 3.77064 9.70278 4.15901C9.70278 4.54737 9.38801 4.86213 8.99965 4.86213C6.71777 4.86213 4.86134 6.71855 4.86134 9.00041C4.86134 11.2823 6.71777 13.1387 8.99965 13.1387C11.2815 13.1387 13.1381 11.2823 13.1381 9.00041C13.1381 8.61204 13.4528 8.29728 13.8411 8.29728C14.2294 8.29728 14.5442 8.61204 14.5442 9.00041Z" fill="#08385C"/>
</svg>
