<svg width="145" height="32" viewBox="0 0 145 32" fill="none" xmlns="http://www.w3.org/2000/svg">
<path d="M4.12066 26.6984C1.47416 23.7658 0.00644483 19.9584 2.11746e-05 16.0091C-0.00640248 12.0597 1.44892 8.24755 4.08586 5.30638L10.7907 11.9977V19.9967L4.12066 26.6984ZM21.229 31.1222V19.4576H12.5304V12.5228H31.6186C33.0904 18.9464 30.4425 27.7174 21.229 31.1257V31.1222ZM21.229 10.7874V0.879122C23.53 1.66362 25.6209 2.96407 27.3416 4.68089C29.0622 6.39771 30.3669 8.48535 31.1558 10.7839L21.229 10.7874ZM12.0016 10.7839L5.29323 4.09958C8.2593 1.43612 12.1132 -0.0248438 16.1003 0.00271268C17.249 -0.021322 18.3954 0.114454 19.5067 0.406139V10.7839H12.0016ZM5.29323 27.8704L12.0016 21.2174H19.5136V31.6021C14.4754 32.8194 8.8318 31.15 5.29323 27.8704Z" fill="white"/>
<path fill-rule="evenodd" clip-rule="evenodd" d="M47.391 20.9117H45V9H50.1767V11.1933H47.391V20.9117ZM55.609 9H61.1842V11.1933H58.0977V13.4917H60.4887V15.685H58.0977V18.7222H61.3835V20.9156H55.609V9ZM71.3421 15.685H69.0526V20.9078H66.5639V9H69.0526V13.4917H71.3421V9H73.7331V20.9117H71.3421V15.685ZM79.1278 9H84.703V11.1933H81.6165V13.4917H84.0075V15.685H81.6165V18.7222H84.9023V20.9156H79.1278V9ZM94.5602 12.4456C94.5602 11.905 94.2105 11.1933 93.6654 11.1933H92.5564V15.0589H93.6842C94.2331 15.0589 94.5789 14.0478 94.5789 13.5967L94.5602 12.4456ZM94.2594 17.1472H92.5564V20.9078H90.0677V9H94.1504C94.5264 9.00754 94.8972 9.09211 95.2415 9.24881C95.5857 9.4055 95.8965 9.63123 96.1559 9.91293C96.4153 10.1946 96.6181 10.5267 96.7527 10.89C96.8872 11.2533 96.9509 11.6406 96.9398 12.0294V13.9117C96.9511 15.2222 96.2368 17.1667 94.2632 17.1667L94.2594 17.1472ZM104.56 12.1344L103.763 16.5211H105.357L104.56 12.1344ZM105.756 18.5083H103.365L102.966 20.9117H100.477L102.97 9H106.158L108.647 20.9117H106.158L105.756 18.5083ZM119.041 20.9117H112.857V9H115.346V18.7222H117.538V9H120.026V18.7222H121.023V23H119.03L119.041 20.9117ZM130.436 14.5378L127.947 19.6556V20.9078H125.459V9H127.947V15.3739L130.436 10.2561V9H132.925V20.9117H130.436V14.5378ZM142.508 11.1933H141.316C140.883 11.1933 140.519 11.7844 140.519 12.1344V13.4917C140.519 13.8806 140.835 14.7439 141.214 14.7439H142.508V11.1933ZM142.508 20.9156V16.7311H141.711L140.117 20.9117H137.429L139.62 16.21C139.62 16.21 138.117 15.5139 138.117 13.3906V11.835C138.117 10.2133 139.211 9.01555 141.004 9.01555H145V20.9272L142.508 20.9156Z" fill="white"/>
</svg>
